<svg viewBox="0 0 999 151.07" xmlns="http://www.w3.org/2000/svg"><g transform="translate(-192 -277.84)"><path d="m411 395.79h-11.4v-88.24h-31.16v-10.16h73.77v10.16h-31.21z"/><path d="m436.73 322h12l16.15 42.07q5.33 14.4 6.6 20.8h.52q.87-3.43 3.67-11.75t18.27-51.12h12l-31.7 84q-4.71 12.45-11 17.67a23.41 23.41 0 0 1 -15.45 5.22 45.15 45.15 0 0 1 -10.1-1.15v-8.95a38.87 38.87 0 0 0 8.28.81q11.51 0 16.42-12.93l4.11-10.5z"/><path d="m545.34 397.14a32 32 0 0 1 -13.16-2.66 24.8 24.8 0 0 1 -10-8.18h-.8a98.6 98.6 0 0 1 .8 12.25v30.36h-11.18v-106.91h9.09l1.55 10.1h.53a26 26 0 0 1 10-8.75 30.44 30.44 0 0 1 13.13-2.7q14.67 0 22.65 10t8 28.14q0 18.17-8.11 28.23t-22.5 10.12zm-1.62-67q-11.29 0-16.35 6.26t-5.19 19.93v2.49q0 15.54 5.19 22.24t16.62 6.7a17.29 17.29 0 0 0 15.01-7.76q5.41-7.74 5.42-21.34 0-13.79-5.42-21.17t-15.28-7.33z"/><path d="m619.75 397.14q-16.35 0-25.81-10t-9.45-27.66q0-17.83 8.78-28.34t23.59-10.5q13.86 0 21.94 9.12t8.08 24.07v7.06h-50.82q.35 13 6.56 19.73t17.54 6.73a59.47 59.47 0 0 0 23.56-5v10a59.59 59.59 0 0 1 -11.21 3.65 63 63 0 0 1 -12.76 1.14zm-3-67.11q-8.9 0-14.17 5.79t-6.23 16h38.55q0-10.57-4.71-16.19t-13.46-5.63z"/><path d="m715.44 370.41q0 12.33-9.05 19.52t-24.07 7.21q-18 0-27.66-4v-6.84q10.64 4.51 27.13 4.51 12.11 0 19.21-5.55a17.61 17.61 0 0 0 7.1-14.58 16.83 16.83 0 0 0 -2.35-9.25 21.44 21.44 0 0 0 -7.68-6.7 95.05 95.05 0 0 0 -15.61-6.53q-15.07-5.2-20.83-11.2t-5.76-16.06a22.06 22.06 0 0 1 8.65-18q8.65-7 22.25-7a65.16 65.16 0 0 1 26.05 5.25l-2.5 5.92a60.89 60.89 0 0 0 -23.42-5.11q-10.9 0-17.36 5.05a16.48 16.48 0 0 0 -6.47 13.73 18 18 0 0 0 2 8.95 18.21 18.21 0 0 0 6.5 6.29q4.5 2.81 15.48 6.7 11.51 4 17.29 7.71a24.73 24.73 0 0 1 8.45 8.48 23.16 23.16 0 0 1 2.65 11.5z"/><path d="m756.88 397.14q-15.69 0-24.57-9.9t-8.89-27.59q0-18.18 9.22-28.31t25.24-10.13a50.75 50.75 0 0 1 18.18 3.3l-1.82 5.92a53.29 53.29 0 0 0 -16.49-3.16q-13.47 0-20.39 8.31t-6.94 23.93q0 14.81 6.94 23.19t19.38 8.38a47.56 47.56 0 0 0 18.51-3.57v6.19q-7 3.44-18.37 3.44z"/><path d="m815.07 321.21a58 58 0 0 1 10 .94l-1.28 6.4a39.09 39.09 0 0 0 -9.49-1.15q-9.36 0-15.34 8t-6 20.06v40.38h-6.67v-73.21h5.66l.67 13.19h.47q4.52-8.08 9.62-11.34a22.53 22.53 0 0 1 12.36-3.27z"/><path d="m832.07 302.3c0-4.31 1.42-6.46 4.24-6.46a3.78 3.78 0 0 1 3.27 1.68 8.31 8.31 0 0 1 1.18 4.78 8.51 8.51 0 0 1 -1.18 4.78 3.73 3.73 0 0 1 -3.27 1.75c-2.82 0-4.24-2.18-4.24-6.53zm7.61 93.49h-6.68v-73.16h6.67z"/><path d="m888.58 397.14q-16.89 0-24.63-12.66h-.47l.2 5.66q.27 5 .27 10.9v27.87h-6.66v-106.28h5.65l1.28 10.43h.4q7.54-11.85 24.1-11.85 14.81 0 22.58 9.73t7.78 28.3q0 18-8.18 28t-22.32 9.9zm-.13-5.93q11.24 0 17.4-8.34t6.15-23.36q0-32.24-23.29-32.24-12.79 0-18.78 7t-6 22.92v2.16q0 17.16 5.75 24.5t18.77 7.36z"/><path d="m951.76 391.21a50.49 50.49 0 0 0 11-1.07v5.38a35.23 35.23 0 0 1 -11.17 1.62q-9.71 0-14.31-5.19t-4.61-16.29v-47.25h-10.79v-3.9l10.83-3 3.37-16.56h3.43v17.71h21.49v5.78h-21.49v46.31q0 8.41 3 12.45t9.25 4.01z"/><path d="m968.43 387.38q0-4.92 2.55-7.54t7.41-2.63q4.9 0 7.47 2.73a10.47 10.47 0 0 1 2.56 7.44 10.73 10.73 0 0 1 -2.59 7.57q-2.6 2.79-7.44 2.79t-7.39-2.74a10.76 10.76 0 0 1 -2.57-7.62z"/><path d="m1039.14 333.33h-18.14v62.46h-15.89v-62.46h-12.28v-7.41l12.25-4.84v-4.85q0-13.19 6.19-19.55t18.92-6.36a50.45 50.45 0 0 1 16.42 2.76l-4.17 12a36.42 36.42 0 0 0 -11.18-1.89q-5.38 0-7.84 3.34t-2.45 10v4.85h18.17z"/><path d="m1097.4 395.79-2.22-9.76h-.81a22.38 22.38 0 0 1 -9.39 8.14 31.31 31.31 0 0 1 -13.9 3q-13.51 0-20.19-6.73t-6.66-20.4v-48.69h16v45.9q0 8.55 3.5 12.82t11 4.28q10 0 14.64-6t4.68-20v-37h15.88v74.44z"/><path d="m1191 395.79h-15.88v-45.79q0-8.61-3.47-12.86t-11-4.24q-10 0-14.67 5.93t-4.64 19.85v37.09h-15.82v-74.42h12.38l2.22 9.76h.81a22 22 0 0 1 9.56-8.21 32 32 0 0 1 13.73-2.9q26.79 0 26.79 27.26z"/><path d="m192 415.68h66.7a71.14 71.14 0 0 1 71.15-71.14v-66.7a137.84 137.84 0 0 0 -137.85 137.84z" fill="#e6646e"/><path d="m329.85 344.54v-55.54a126.73 126.73 0 0 0 -126.73 126.68h55.58a71.14 71.14 0 0 1 71.15-71.14z" fill="#ffdc64"/><path d="m329.85 344.54v-44.47a115.62 115.62 0 0 0 -115.62 115.61h44.47a71.14 71.14 0 0 1 71.15-71.14z" fill="#bee86e"/><path d="m329.85 344.54v-33.35a104.5 104.5 0 0 0 -104.5 104.49h33.35a71.14 71.14 0 0 1 71.15-71.14z" fill="#00cdff"/><path d="m329.85 344.54v-22.24a93.38 93.38 0 0 0 -93.38 93.38h22.23a71.14 71.14 0 0 1 71.15-71.14z" fill="#00aaf0"/><path d="m329.85 344.54v-11.12a82.26 82.26 0 0 0 -82.27 82.26h11.12a71.14 71.14 0 0 1 71.15-71.14z" fill="#965af0"/></g></svg>